<?xml version="1.0" encoding="UTF-8" standalone="no"?>
<!-- Created with Inkscape (http://www.inkscape.org/) -->

<svg
   xmlns:dc="http://purl.org/dc/elements/1.1/"
   xmlns:cc="http://creativecommons.org/ns#"
   xmlns:rdf="http://www.w3.org/1999/02/22-rdf-syntax-ns#"
   xmlns:svg="http://www.w3.org/2000/svg"
   xmlns="http://www.w3.org/2000/svg"
   xmlns:xlink="http://www.w3.org/1999/xlink"
   xmlns:sodipodi="http://sodipodi.sourceforge.net/DTD/sodipodi-0.dtd"
   xmlns:inkscape="http://www.inkscape.org/namespaces/inkscape"
   width="48"
   height="48"
   id="svg4686"
   sodipodi:version="0.32"
   inkscape:version="0.48.1 r9760"
   version="1.0"
   sodipodi:docname="locked.svg"
   inkscape:output_extension="org.inkscape.output.svg.inkscape">
  <defs
     id="defs4688">
    <linearGradient
       inkscape:collect="always"
       id="linearGradient6227">
      <stop
         style="stop-color:#000000;stop-opacity:1;"
         offset="0"
         id="stop6229" />
      <stop
         style="stop-color:#000000;stop-opacity:0;"
         offset="1"
         id="stop6231" />
    </linearGradient>
    <linearGradient
       id="linearGradient6215">
      <stop
         id="stop6217"
         offset="0"
         style="stop-color:#ead200;stop-opacity:1;" />
      <stop
         style="stop-color:#fff16a;stop-opacity:1;"
         offset="0.20999999"
         id="stop6219" />
      <stop
         id="stop6221"
         offset="0.83999997"
         style="stop-color:#b5a300;stop-opacity:1;" />
      <stop
         id="stop6223"
         offset="1"
         style="stop-color:#e8d000;stop-opacity:1;" />
    </linearGradient>
    <linearGradient
       id="linearGradient6089">
      <stop
         style="stop-color:#000000;stop-opacity:1;"
         offset="0"
         id="stop6091" />
      <stop
         id="stop6097"
         offset="0.5"
         style="stop-color:#000000;stop-opacity:0.17171717;" />
      <stop
         style="stop-color:#000000;stop-opacity:1;"
         offset="1"
         id="stop6093" />
    </linearGradient>
    <linearGradient
       inkscape:collect="always"
       id="linearGradient6075">
      <stop
         style="stop-color:#000000;stop-opacity:1;"
         offset="0"
         id="stop6077" />
      <stop
         style="stop-color:#000000;stop-opacity:0;"
         offset="1"
         id="stop6079" />
    </linearGradient>
    <linearGradient
       inkscape:collect="always"
       id="linearGradient6057">
      <stop
         style="stop-color:#ffffff;stop-opacity:1;"
         offset="0"
         id="stop6059" />
      <stop
         style="stop-color:#ffffff;stop-opacity:0;"
         offset="1"
         id="stop6061" />
    </linearGradient>
    <linearGradient
       id="linearGradient5881">
      <stop
         id="stop5883"
         offset="0"
         style="stop-color:#fffac7;stop-opacity:1;" />
      <stop
         style="stop-color:#fff8b2;stop-opacity:1;"
         offset="1"
         id="stop5885" />
    </linearGradient>
    <linearGradient
       id="linearGradient9845">
      <stop
         id="stop9847"
         offset="0"
         style="stop-color:#ffffff;stop-opacity:1;" />
      <stop
         id="stop9849"
         offset="1.0000000"
         style="stop-color:#ffffff;stop-opacity:0.49484536;" />
    </linearGradient>
    <linearGradient
       id="linearGradient10591">
      <stop
         id="stop10593"
         offset="0.0000000"
         style="stop-color:#cad0c6;stop-opacity:1.0000000;" />
      <stop
         style="stop-color:#eaece9;stop-opacity:1.0000000;"
         offset="0.50000000"
         id="stop10599" />
      <stop
         id="stop10595"
         offset="1.0000000"
         style="stop-color:#c5cbc0;stop-opacity:1.0000000;" />
    </linearGradient>
    <linearGradient
       id="linearGradient12071"
       inkscape:collect="always">
      <stop
         id="stop12073"
         offset="0"
         style="stop-color:#ffffff;stop-opacity:1;" />
      <stop
         id="stop12075"
         offset="1"
         style="stop-color:#ffffff;stop-opacity:0;" />
    </linearGradient>
    <filter
       inkscape:collect="always"
       x="-0.49411764"
       width="1.9882353"
       y="-0.082352942"
       height="1.1647059"
       id="filter5957">
      <feGaussianBlur
         inkscape:collect="always"
         stdDeviation="0.69878785"
         id="feGaussianBlur5959" />
    </filter>
    <filter
       inkscape:collect="always"
       x="-0.074990261"
       width="1.1499805"
       y="-0.47181373"
       height="1.9436275"
       id="filter6051">
      <feGaussianBlur
         inkscape:collect="always"
         stdDeviation="1.4154412"
         id="feGaussianBlur6053" />
    </filter>
    <filter
       inkscape:collect="always"
       x="-0.14143888"
       width="1.2828778"
       y="-1.5218824"
       height="4.0437647"
       id="filter6171">
      <feGaussianBlur
         inkscape:collect="always"
         stdDeviation="1.1889706"
         id="feGaussianBlur6173" />
    </filter>
    <filter
       inkscape:collect="always"
       x="-0.24242527"
       width="1.4848505"
       y="-0.047579074"
       height="1.0951581"
       id="filter6251">
      <feGaussianBlur
         inkscape:collect="always"
         stdDeviation="0.24444548"
         id="feGaussianBlur6253" />
    </filter>
    <filter
       inkscape:collect="always"
       x="-0.085115738"
       width="1.1702315"
       y="-0.4135721"
       height="1.8271442"
       id="filter6328">
      <feGaussianBlur
         inkscape:collect="always"
         stdDeviation="0.42546784"
         id="feGaussianBlur6330" />
    </filter>
    <filter
       inkscape:collect="always"
       id="filter5745">
      <feGaussianBlur
         inkscape:collect="always"
         stdDeviation="0.8362597"
         id="feGaussianBlur5747" />
    </filter>
    <radialGradient
       inkscape:collect="always"
       xlink:href="#linearGradient6075"
       id="radialGradient3100"
       gradientUnits="userSpaceOnUse"
       gradientTransform="matrix(1,0,0,0.5849057,0,8.4316038)"
       cx="15.9375"
       cy="20.3125"
       fx="15.9375"
       fy="20.3125"
       r="3.3125" />
    <radialGradient
       inkscape:collect="always"
       xlink:href="#linearGradient6075"
       id="radialGradient3102"
       gradientUnits="userSpaceOnUse"
       gradientTransform="matrix(1,0,0,0.5849057,0,8.4316038)"
       cx="15.9375"
       cy="20.3125"
       fx="15.9375"
       fy="20.3125"
       r="3.3125" />
    <linearGradient
       inkscape:collect="always"
       xlink:href="#linearGradient6089"
       id="linearGradient3104"
       gradientUnits="userSpaceOnUse"
       gradientTransform="translate(0,-0.5)"
       x1="17.1875"
       y1="20.09375"
       x2="34"
       y2="20.09375" />
    <linearGradient
       inkscape:collect="always"
       xlink:href="#linearGradient10591"
       id="linearGradient3106"
       gradientUnits="userSpaceOnUse"
       gradientTransform="translate(0,-1.926279)"
       x1="10.650842"
       y1="2.9136841"
       x2="27.192274"
       y2="17.470011" />
    <linearGradient
       inkscape:collect="always"
       xlink:href="#linearGradient6227"
       id="linearGradient3108"
       gradientUnits="userSpaceOnUse"
       gradientTransform="translate(1.6824037,1.125)"
       x1="35.004684"
       y1="14.849737"
       x2="33.004314"
       y2="14.849737" />
    <linearGradient
       inkscape:collect="always"
       xlink:href="#linearGradient6227"
       id="linearGradient3110"
       gradientUnits="userSpaceOnUse"
       gradientTransform="translate(-19.532826,1.7437184)"
       x1="32.128025"
       y1="13.789077"
       x2="35.020981"
       y2="13.789077" />
    <radialGradient
       inkscape:collect="always"
       xlink:href="#linearGradient6057"
       id="radialGradient3114"
       gradientUnits="userSpaceOnUse"
       cx="18.031223"
       cy="6.2806997"
       fx="18.031223"
       fy="6.2806997"
       r="3.1819806" />
    <linearGradient
       inkscape:collect="always"
       xlink:href="#linearGradient12071"
       id="linearGradient3216"
       gradientUnits="userSpaceOnUse"
       gradientTransform="matrix(0.89555768,0,0,0.87905704,2.7676236,5.4870659)"
       x1="21.941509"
       y1="21.550869"
       x2="21.941509"
       y2="18.037588" />
    <linearGradient
       inkscape:collect="always"
       xlink:href="#linearGradient5881"
       id="linearGradient3227"
       gradientUnits="userSpaceOnUse"
       gradientTransform="matrix(0.89637808,0,0,1.3851809,2.747932,-5.1638892)"
       x1="24.875"
       y1="21"
       x2="24.75"
       y2="17" />
    <linearGradient
       inkscape:collect="always"
       xlink:href="#linearGradient9845"
       id="linearGradient3230"
       gradientUnits="userSpaceOnUse"
       gradientTransform="matrix(0.89476314,0,0,1.0320648,2.800235,-2.0195393)"
       x1="10.907269"
       y1="25.002281"
       x2="30.875446"
       y2="36.127281" />
    <linearGradient
       inkscape:collect="always"
       xlink:href="#linearGradient6215"
       id="linearGradient3243"
       gradientUnits="userSpaceOnUse"
       gradientTransform="matrix(0.89714704,0,0,1.0433696,2.7293956,-3.7225042)"
       x1="6.72682"
       y1="32.161697"
       x2="40.938126"
       y2="32.161697" />
  </defs>
  <sodipodi:namedview
     id="base"
     pagecolor="#ffffff"
     bordercolor="#dedede"
     borderopacity="1"
     gridtolerance="10000"
     guidetolerance="10"
     objecttolerance="10"
     inkscape:pageopacity="0.0"
     inkscape:pageshadow="2"
     inkscape:zoom="4"
     inkscape:cx="27.197142"
     inkscape:cy="33.092753"
     inkscape:document-units="px"
     inkscape:current-layer="layer1"
     width="48px"
     height="48px"
     borderlayer="true"
     inkscape:showpageshadow="false"
     showgrid="false"
     inkscape:window-width="872"
     inkscape:window-height="685"
     inkscape:window-x="642"
     inkscape:window-y="315"
     inkscape:window-maximized="0" />
  <metadata
     id="metadata4691">
    <rdf:RDF>
      <cc:Work
         rdf:about="">
        <dc:format>image/svg+xml</dc:format>
        <dc:type
           rdf:resource="http://purl.org/dc/dcmitype/StillImage" />
        <dc:title>Locked</dc:title>
        <dc:creator>
          <cc:Agent>
            <dc:title>Jakub Steiner</dc:title>
          </cc:Agent>
        </dc:creator>
        <dc:source>http://jimmac.musichall.cz</dc:source>
        <dc:subject>
          <rdf:Bag>
            <rdf:li>lock</rdf:li>
            <rdf:li>locked</rdf:li>
            <rdf:li>secured</rdf:li>
            <rdf:li>closed</rdf:li>
          </rdf:Bag>
        </dc:subject>
        <cc:license
           rdf:resource="http://creativecommons.org/licenses/GPL/2.0/" />
      </cc:Work>
      <cc:License
         rdf:about="http://creativecommons.org/licenses/GPL/2.0/">
        <cc:permits
           rdf:resource="http://web.resource.org/cc/Reproduction" />
        <cc:permits
           rdf:resource="http://web.resource.org/cc/Distribution" />
        <cc:requires
           rdf:resource="http://web.resource.org/cc/Notice" />
        <cc:permits
           rdf:resource="http://web.resource.org/cc/DerivativeWorks" />
        <cc:requires
           rdf:resource="http://web.resource.org/cc/ShareAlike" />
        <cc:requires
           rdf:resource="http://web.resource.org/cc/SourceCode" />
      </cc:License>
    </rdf:RDF>
  </metadata>
  <g
     inkscape:label="Layer 1"
     inkscape:groupmode="layer"
     id="layer1">
    <g
       id="g3246"
       transform="matrix(1,0,0,0.81790824,0,6.0138641)">
      <rect
         transform="matrix(0.94791632,0,0,0.92345393,0.55860349,1.7620144)"
         ry="1.9748279"
         rx="3.1708715"
         y="39.75"
         x="6.25"
         height="6"
         width="37.75"
         id="rect5961"
         style="opacity:0.45882353;color:#000000;fill:#000000;fill-opacity:1;fill-rule:evenodd;stroke:none;stroke-width:1;marker:none;visibility:visible;display:inline;overflow:visible;filter:url(#filter6051);enable-background:accumulate" />
      <path
         sodipodi:nodetypes="ccccccccc"
         id="rect1314"
         d="m 10.565953,17.922458 c 9.044812,-1.332912 18.185863,-1.125982 27.384356,0 1.110827,0 2.005102,0.963689 2.005102,2.160738 l 0,21.535234 c 0,1.197049 -0.951991,1.987591 -2.005102,2.160738 -9.536677,1.116089 -17.713739,1.107279 -27.384356,0 C 9.2819791,43.375157 8.5608516,42.815479 8.5608516,41.61843 l 0,-21.535234 c 0,-1.197049 0.8942751,-2.160738 2.0051014,-2.160738 z"
         style="fill:url(#linearGradient3243);fill-opacity:1;fill-rule:evenodd;stroke:#7d6400;stroke-width:0.92345351;stroke-linecap:round;stroke-linejoin:round;stroke-miterlimit:4;stroke-opacity:1;stroke-dashoffset:0"
         inkscape:connector-curvature="0" />
      <g
         transform="matrix(0.92345393,0,0,0.92345393,0.7114932,1.7620144)"
         id="g4695">
        <path
           style="opacity:0.14117647;color:#000000;fill:#000000;fill-opacity:1;fill-rule:evenodd;stroke:none;stroke-width:1;marker:none;visibility:visible;display:inline;overflow:visible;enable-background:accumulate"
           d="m 41.940271,24.444505 c -0.398206,1.330312 -4.534152,1.670412 -5.302076,1.773431 0,0 -16.308875,0.480472 -16.308875,0.480472 0,0 16.26324,0.159134 16.26324,0.159134 0.825913,-0.09712 5.218651,0.103389 5.4361,-1.70593 l -0.08839,-0.707107 z"
           id="path6193"
           sodipodi:nodetypes="cscscc"
           inkscape:connector-curvature="0" />
        <path
           sodipodi:nodetypes="cscscc"
           id="path4678"
           d="m 41.940271,26.444505 c -0.398206,1.330312 -4.534152,1.670412 -5.302076,1.773431 0,0 -19.058875,0.480472 -19.058875,0.480472 0,0 19.01324,0.159134 19.01324,0.159134 0.825913,-0.09712 5.218651,0.103389 5.4361,-1.70593 l -0.08839,-0.707107 z"
           style="opacity:0.14117647;color:#000000;fill:#000000;fill-opacity:1;fill-rule:evenodd;stroke:none;stroke-width:1;marker:none;visibility:visible;display:inline;overflow:visible;enable-background:accumulate"
           inkscape:connector-curvature="0" />
        <path
           style="opacity:0.14117647;color:#000000;fill:#000000;fill-opacity:1;fill-rule:evenodd;stroke:none;stroke-width:1;marker:none;visibility:visible;display:inline;overflow:visible;enable-background:accumulate"
           d="m 41.940271,28.444505 c -0.398206,1.330312 -4.534152,1.670412 -5.302076,1.773431 0,0 -16.308875,0.480472 -16.308875,0.480472 0,0 16.26324,0.159134 16.26324,0.159134 0.825913,-0.09712 5.218651,0.103389 5.4361,-1.70593 l -0.08839,-0.707107 z"
           id="path4680"
           sodipodi:nodetypes="cscscc"
           inkscape:connector-curvature="0" />
        <path
           sodipodi:nodetypes="cscscc"
           id="path4682"
           d="m 41.940271,30.444505 c -0.398206,1.330312 -4.534152,1.670412 -5.302076,1.773431 0,0 -11.058875,0.480472 -11.058875,0.480472 0,0 11.01324,0.159134 11.01324,0.159134 0.825913,-0.09712 5.218651,0.103389 5.4361,-1.70593 l -0.08839,-0.707107 z"
           style="opacity:0.14117647;color:#000000;fill:#000000;fill-opacity:1;fill-rule:evenodd;stroke:none;stroke-width:1;marker:none;visibility:visible;display:inline;overflow:visible;enable-background:accumulate"
           inkscape:connector-curvature="0" />
        <path
           style="opacity:0.14117647;color:#000000;fill:#000000;fill-opacity:1;fill-rule:evenodd;stroke:none;stroke-width:1;marker:none;visibility:visible;display:inline;overflow:visible;enable-background:accumulate"
           d="m 41.940271,32.444505 c -0.398206,1.330312 -4.534152,1.670412 -5.302076,1.773431 0,0 -16.308875,0.480472 -16.308875,0.480472 0,0 16.26324,0.159134 16.26324,0.159134 0.825913,-0.09712 5.218651,0.103389 5.4361,-1.70593 l -0.08839,-0.707107 z"
           id="path4684"
           sodipodi:nodetypes="cscscc"
           inkscape:connector-curvature="0" />
        <path
           sodipodi:nodetypes="cscscc"
           id="path4686"
           d="m 41.940271,34.444505 c -0.398206,1.330312 -4.534152,1.670412 -5.302076,1.773431 0,0 -18.746375,0.480472 -18.746375,0.480472 0,0 18.70074,0.159134 18.70074,0.159134 0.825913,-0.09712 5.218651,0.103389 5.4361,-1.70593 l -0.08839,-0.707107 z"
           style="opacity:0.14117647;color:#000000;fill:#000000;fill-opacity:1;fill-rule:evenodd;stroke:none;stroke-width:1;marker:none;visibility:visible;display:inline;overflow:visible;enable-background:accumulate"
           inkscape:connector-curvature="0" />
        <path
           style="opacity:0.14117647;color:#000000;fill:#000000;fill-opacity:1;fill-rule:evenodd;stroke:none;stroke-width:1;marker:none;visibility:visible;display:inline;overflow:visible;enable-background:accumulate"
           d="m 41.940271,36.444505 c -0.398206,1.330312 -4.534152,1.670412 -5.302076,1.773431 0,0 -13.996375,0.480472 -13.996375,0.480472 0,0 13.95074,0.159134 13.95074,0.159134 0.825913,-0.09712 5.218651,0.103389 5.4361,-1.70593 l -0.08839,-0.707107 z"
           id="path4688"
           sodipodi:nodetypes="cscscc"
           inkscape:connector-curvature="0" />
        <path
           sodipodi:nodetypes="cscscc"
           id="path4690"
           d="m 41.940271,38.444505 c -0.398206,1.330312 -4.534152,1.670412 -5.302076,1.773431 0,0 -8.433875,0.480472 -8.433875,0.480472 0,0 8.38824,0.159134 8.38824,0.159134 0.825913,-0.09712 5.218651,0.103389 5.4361,-1.70593 l -0.08839,-0.707107 z"
           style="opacity:0.14117647;color:#000000;fill:#000000;fill-opacity:1;fill-rule:evenodd;stroke:none;stroke-width:1;marker:none;visibility:visible;display:inline;overflow:visible;enable-background:accumulate"
           inkscape:connector-curvature="0" />
        <path
           style="opacity:0.14117647;color:#000000;fill:#000000;fill-opacity:1;fill-rule:evenodd;stroke:none;stroke-width:1;marker:none;visibility:visible;display:inline;overflow:visible;enable-background:accumulate"
           d="m 41.940271,40.444505 c -0.398206,1.330312 -4.534152,1.670412 -5.302076,1.773431 0,0 -16.308875,0.480472 -16.308875,0.480472 0,0 16.26324,0.159134 16.26324,0.159134 0.825913,-0.09712 5.218651,0.103389 5.4361,-1.70593 l -0.08839,-0.707107 z"
           id="path4692"
           sodipodi:nodetypes="cscscc"
           inkscape:connector-curvature="0" />
      </g>
      <path
         sodipodi:nodetypes="ccccccccc"
         id="rect6903"
         d="m 10.638242,19.303355 27.246366,0 c 0.63928,0 1.153937,0.54125 1.153937,1.213565 l 0,21.125229 c 0,0.672315 -0.456941,0.982702 -1.153937,1.213565 -8.908974,1.111481 -17.702517,1.108903 -27.246366,0 -0.6392808,-0.230863 -1.1539365,-0.54125 -1.1539365,-1.213565 l 0,-21.125229 c 0,-0.672315 0.5146557,-1.213565 1.1539365,-1.213565 z"
         style="fill:none;stroke:url(#linearGradient3230);stroke-width:0.92345417;stroke-linecap:round;stroke-linejoin:round;stroke-miterlimit:4;stroke-opacity:0.60109289;stroke-dashoffset:0"
         inkscape:connector-curvature="0" />
      <path
         sodipodi:nodetypes="ccccccccc"
         id="rect1460"
         d="m 10.507239,18.384185 c 9.169178,-1.348932 18.338355,-1.10867 27.507533,0 0.822502,0 1.484661,0.662159 1.484661,1.48466 l 0,2.571404 c 0,0.822501 -0.662159,1.48466 -1.484661,1.48466 -9.568579,0.637275 -18.372508,0.409838 -27.507533,0 -0.8225019,0 -1.4846604,-0.662159 -1.4846604,-1.48466 l 0,-2.571404 c 0,-0.822501 0.6621585,-1.48466 1.4846604,-1.48466 z"
         style="color:#000000;fill:url(#linearGradient3227);fill-opacity:1;fill-rule:evenodd;stroke:none;stroke-width:2;marker:none;visibility:visible;display:inline;overflow:visible"
         inkscape:connector-curvature="0" />
      <path
         transform="matrix(1.28092,0,0,1.28092,-4.9856217,-5.4990145)"
         d="m 19.25,20.3125 c 0,1.070052 -1.483057,1.9375 -3.3125,1.9375 -1.829443,0 -3.3125,-0.867448 -3.3125,-1.9375 0,-1.070052 1.483057,-1.9375 3.3125,-1.9375 1.829443,0 3.3125,0.867448 3.3125,1.9375 z"
         sodipodi:ry="1.9375"
         sodipodi:rx="3.3125"
         sodipodi:cy="20.3125"
         sodipodi:cx="15.9375"
         id="path6073"
         style="opacity:0.36470588;color:#000000;fill:url(#radialGradient3100);fill-opacity:1;fill-rule:evenodd;stroke:none;stroke-width:1;marker:none;visibility:visible;display:inline;overflow:visible;enable-background:accumulate"
         sodipodi:type="arc" />
      <path
         sodipodi:type="arc"
         style="opacity:0.34705882;color:#000000;fill:url(#radialGradient3102);fill-opacity:1;fill-rule:evenodd;stroke:none;stroke-width:1;marker:none;visibility:visible;display:inline;overflow:visible;enable-background:accumulate"
         id="path6083"
         sodipodi:cx="15.9375"
         sodipodi:cy="20.3125"
         sodipodi:rx="3.3125"
         sodipodi:ry="1.9375"
         d="m 19.25,20.3125 c 0,1.070052 -1.483057,1.9375 -3.3125,1.9375 -1.829443,0 -3.3125,-0.867448 -3.3125,-1.9375 0,-1.070052 1.483057,-1.9375 3.3125,-1.9375 1.829443,0 3.3125,0.867448 3.3125,1.9375 z"
         transform="matrix(1.28092,0,0,1.28092,12.675434,-5.4990145)" />
      <rect
         transform="matrix(0.92345393,0,0,0.92345393,0.7114932,1.7620144)"
         ry="0.78125"
         rx="0.78125"
         y="18.8125"
         x="17.1875"
         height="1.5625"
         width="16.8125"
         id="rect6087"
         style="opacity:0.48235294;color:#000000;fill:url(#linearGradient3104);fill-opacity:1;fill-rule:evenodd;stroke:none;stroke-width:1;marker:none;visibility:visible;display:inline;overflow:visible;filter:url(#filter6171);enable-background:accumulate" />
      <path
         sodipodi:nodetypes="ccccccccc"
         id="rect1593"
         d="m 10.559149,20.870566 27.403718,0 c 0.595462,0 1.074843,0.451748 1.074843,1.012889 l 0,0.611395 c 0,0.56114 -0.479381,1.012888 -1.074843,1.012888 -9.049326,1.108212 -18.20088,1.17603 -27.403718,0 -0.5954638,0 -1.0748435,-0.451748 -1.0748435,-1.012888 l 0,-0.611395 c 0,-0.561141 0.4793797,-1.012889 1.0748435,-1.012889 z"
         style="color:#000000;fill:none;stroke:url(#linearGradient3216);stroke-width:0.92345393;stroke-linecap:round;stroke-linejoin:round;stroke-miterlimit:4;stroke-opacity:1;stroke-dashoffset:0;marker:none;visibility:visible;display:inline;overflow:visible"
         inkscape:connector-curvature="0" />
      <rect
         transform="matrix(1.8213021,0,0,1.1343123,-13.661485,-3.1354096)"
         ry="1.6077254"
         rx="1.6077254"
         y="23.226137"
         x="14.594036"
         height="16.970562"
         width="2.8284271"
         id="rect5887"
         style="opacity:0.29411765;color:#000000;fill:#ffffff;fill-opacity:1;fill-rule:evenodd;stroke:none;stroke-width:1;marker:none;visibility:visible;display:inline;overflow:visible;filter:url(#filter5957);enable-background:accumulate" />
    </g>
    <g
       id="g1387"
       inkscape:r_cx="true"
       inkscape:r_cy="true"
       transform="matrix(0.82333444,0,0,0.92345393,4.4447036,3.3076354)">
      <path
         inkscape:connector-curvature="0"
         inkscape:r_cy="true"
         inkscape:r_cx="true"
         sodipodi:nodetypes="cczcccczccc"
         id="path2086"
         d="m 10.6402,20.234846 0,-5.734846 C 10.6402,6.6298666 15.897609,2.8910066 24.020027,2.9892921 32.18664,3.0875777 37.5,6.5372782 37.5,14.5 l 0,5.984846 c 0,1.954229 -5.490701,2.202951 -5.490701,0 l 0,-3.984846 c 0,-2 0.568453,-8.471853 -7.932058,-8.471853 -8.430413,0 -7.81615,6.511738 -7.783459,8.463879 l 0,3.776498 c 0,2.35462 -5.653582,2.344609 -5.653582,-0.03368 z"
         style="fill:url(#linearGradient3106);fill-opacity:1;fill-rule:evenodd;stroke:#888a85;stroke-width:1.05905688;stroke-linecap:butt;stroke-linejoin:miter;stroke-miterlimit:4;stroke-opacity:1;stroke-dasharray:none" />
      <path
         inkscape:connector-curvature="0"
         style="opacity:0.18235294;fill:url(#linearGradient3108);fill-opacity:1;fill-rule:evenodd;stroke:none;filter:url(#filter6251)"
         d="m 34.687087,10.837069 1.263948,0.125 c 0.927239,2.822733 0.736052,9.510413 0.736052,9.510413 -0.0625,1.125 -2.03125,0.53125 -2,0 l 0,-9.635413 z"
         id="rect1345"
         sodipodi:nodetypes="ccccc"
         inkscape:r_cx="true"
         inkscape:r_cy="true" />
      <path
         inkscape:connector-curvature="0"
         inkscape:r_cy="true"
         inkscape:r_cx="true"
         sodipodi:nodetypes="ccccc"
         id="path6332"
         d="m 12.926606,11.544175 0.371719,0.169195 c 1.720331,1.054966 2.173532,9.37783 2.173532,9.37783 -0.0625,1.125 -2.03125,0.53125 -2,0 0,0 0.37822,-6.87064 -0.545251,-9.547025 z"
         style="opacity:0.14117647;fill:url(#linearGradient3110);fill-opacity:1;fill-rule:evenodd;stroke:none;filter:url(#filter6251)"
         transform="matrix(-1,0,0,1,29.05878,-0.6187184)" />
    </g>
    <path
       inkscape:connector-curvature="0"
       style="opacity:0.62352941;color:#000000;fill:none;stroke:#ffffff;stroke-width:2;stroke-linecap:round;stroke-linejoin:miter;stroke-miterlimit:4;stroke-opacity:1;stroke-dasharray:none;stroke-dashoffset:0;marker:none;visibility:visible;display:inline;overflow:visible;filter:url(#filter5745);enable-background:accumulate"
       d="m 15.375,19.625 0.125,-7.5 C 15.5,2.2486269 34.1875,1.4485997 34.1875,13 l 0,6.875"
       id="path5675"
       sodipodi:nodetypes="cccc"
       transform="matrix(0.92345393,0,0,0.92345393,0.7114932,3.7620144)" />
    <g
       id="g6067"
       transform="matrix(0.92345393,0,0,0.92345393,1.5277188,3.272279)">
      <path
         d="m 21.213204,6.2806997 c 0,1.7573594 -1.424621,3.1819806 -3.181981,3.1819806 -1.757359,0 -3.18198,-1.4246212 -3.18198,-3.1819806 0,-1.7573593 1.424621,-3.1819806 3.18198,-3.1819806 1.75736,0 3.181981,1.4246213 3.181981,3.1819806 z"
         sodipodi:ry="3.1819806"
         sodipodi:rx="3.1819806"
         sodipodi:cy="6.2806997"
         sodipodi:cx="18.031223"
         id="path6055"
         style="color:#000000;fill:url(#radialGradient3114);fill-opacity:1;fill-rule:evenodd;stroke:none;stroke-width:1;marker:none;visibility:visible;display:inline;overflow:visible;enable-background:accumulate"
         sodipodi:type="arc" />
      <path
         transform="matrix(0.4343344,0,0,0.4343344,10.199642,3.5527756)"
         sodipodi:type="arc"
         style="color:#000000;fill:#ffffff;fill-opacity:1;fill-rule:evenodd;stroke:none;stroke-width:1;marker:none;visibility:visible;display:inline;overflow:visible;enable-background:accumulate"
         id="path6065"
         sodipodi:cx="18.031223"
         sodipodi:cy="6.2806997"
         sodipodi:rx="3.1819806"
         sodipodi:ry="3.1819806"
         d="m 21.213204,6.2806997 c 0,1.7573594 -1.424621,3.1819806 -3.181981,3.1819806 -1.757359,0 -3.18198,-1.4246212 -3.18198,-3.1819806 0,-1.7573593 1.424621,-3.1819806 3.18198,-3.1819806 1.75736,0 3.181981,1.4246213 3.181981,3.1819806 z" />
    </g>
    <path
       inkscape:connector-curvature="0"
       style="color:#000000;fill:#ffffff;fill-opacity:1;fill-rule:evenodd;stroke:none;stroke-width:1;marker:none;visibility:visible;display:inline;overflow:visible;filter:url(#filter6328);enable-background:accumulate"
       d="m 21.715689,3.956218 c 2.452745,-0.590294 5.053115,-0.6282265 7.612892,0 1.687749,0.4142114 1.233389,1.8891372 0,1.5434979 -2.532582,-0.7097188 -5.096484,-0.5199497 -7.612892,0 -1.77916,0.3676169 -1.639492,-1.1489269 0,-1.5434979 z"
       id="rect6257"
       sodipodi:nodetypes="cssss"
       transform="matrix(0.92345393,0,0,0.92345393,0.7114932,3.7620144)" />
  </g>
</svg>
